- 
http://www.Speed.Cd      fast  and The Hottest Private Tracker on the net

   signup is open now

Please Seed back to make the speed Faster!!!

------------------nfo--------------------------
-








































          
          
              
              
                    
                    
                    
                    

Lucky.2011.BRRip.XviD.AC3-SiC

Poster:
[img]http://img225.imageshack.us/img225/7978/mv5bmtgwndm0mtcxn15bml5.jpg[/img]

IMDB Link:
http://www.imdb.com/title/tt1473397/

Description:
A wannabe serial killer wins the lottery and pursues his lifelong crush. 

MediaInfo:
General
Complete name                    : Lucky.2011.BRRip.XviD.AC3-SiC.avi
Format                           : AVI
Format/Info                      : Audio Video Interleave
File size                        : 1.37 GiB
Duration                         : 1h 43mn
Overall bit rate                 : 1 885 Kbps

Video
ID                               : 0
Format                           : MPEG-4 Visual
Format profile                   : Advanced Simple@L5
Format settings, BVOP            : 2
Format settings, QPel            : No
Format settings, GMC             : No warppoints
Format settings, Matrix          : Default (MPEG)
Muxing mode                      : Packed bitstream
Codec ID                         : XVID
Codec ID/Hint                    : XviD
Duration                         : 1h 43mn
Bit rate                         : 1 493 Kbps
Width                            : 720 pixels
Height                           : 304 pixels
Display aspect ratio             : 2.35:1
Frame rate                       : 23.976 fps
Color space                      : YUV
Chroma subsampling               : 4:2:0
Bit depth                        : 8 bits
Scan type                        : Progressive
Compression mode                 : Lossy
Bits/(Pixel*Frame)               : 0.285
Stream size                      : 1.08 GiB (79%)
Writing library                  : XviD 64

Audio
ID                               : 1
Format                           : AC-3
Format/Info                      : Audio Coding 3
Mode extension                   : CM (complete main)
Codec ID                         : 2000
Duration                         : 1h 43mn
Bit rate mode                    : Constant
Bit rate                         : 384 Kbps
Channel(s)                       : 6 channels
Channel positions                : Front: L C R, Side: L R, LFE
Sampling rate                    : 48.0 KHz
Bit depth                        : 16 bits
Compression mode                 : Lossy
Stream size                      : 285 MiB (20%)
Alignment                        : Aligned on interleaves
Interleave, duration             : 64 ms (1.53 video frames)
Interleave, preload duration     : 192 ms
Title                            : untouchables-lucky.2011.720p - [2] _new


Screenshots:
[img]http://img832.imageshack.us/img832/7828/snap1cs.png[/img]
[img]http://img153.imageshack.us/img153/8232/snap2z.png[/img]
[img]http://img267.imageshack.us/img267/6093/snap3g.png[/img]
[img]http://img62.imageshack.us/img62/4601/snap4y.png[/img]
[img]http://img408.imageshack.us/img408/9558/snap5z.png[/img]


Note : did my thing and it turned out nice... 

Source: 720p UNTOUCHABLES thnx

Enjoy!

Respects to CaptainHomey, Cyanide, CM8, Rx, THC, ELEKTRI4KA, 
Killerhz, PA, YeFsTe, Box, MrRep and everyone in the struggle...